<?xml version="1.0" encoding="UTF-8" standalone="no"?>
<svg
   xmlns:dc="http://purl.org/dc/elements/1.1/"
   xmlns:cc="http://creativecommons.org/ns#"
   xmlns:rdf="http://www.w3.org/1999/02/22-rdf-syntax-ns#"
   xmlns:svg="http://www.w3.org/2000/svg"
   xmlns="http://www.w3.org/2000/svg"
   version="1.1"
   id="svg2"
   viewBox="0 0 77.326913 79.282319"
   height="79.282318"
   width="77.326912">
  <defs
     id="defs4" />
  <metadata
     id="metadata7">
    <rdf:RDF>
      <cc:Work
         rdf:about="">
        <dc:format>image/svg+xml</dc:format>
        <dc:type
           rdf:resource="http://purl.org/dc/dcmitype/StillImage" />
        <dc:title></dc:title>
      </cc:Work>
    </rdf:RDF>
  </metadata>
  <g
     transform="translate(-42.688566,-446.90988)"
     id="layer1">
    <g
       transform="matrix(0.73086983,0,0,0.73086983,-83.201135,149.30901)"
       id="g4190">
      <path
         style="opacity:1;fill:none;fill-opacity:1;fill-rule:evenodd;stroke:#000000;stroke-width:1.25;stroke-linecap:round;stroke-linejoin:round;stroke-miterlimit:4;stroke-dasharray:none;stroke-dashoffset:0;stroke-opacity:1"
         d="m 180.84961,458.50586 c -1.42758,3.66894 -1.56885,7.87358 -0.10156,12.13672 1.79214,5.185 5.73431,9.87373 11.02734,12.85351 0.23522,0.16056 0.29699,0.20642 0.5293,0.33594 l 43.6914,24.36133"
         id="path4175" />
      <path
         id="path4169"
         d="m 204.44538,421.43541 c -12.00337,2.10249 -18.69716,12.6305 -14.95095,23.51498 1.79214,5.185 5.73369,9.87301 11.02672,12.85279 0.23522,0.16056 0.29809,0.20601 0.5304,0.33553 l 43.69029,24.36179 22.90592,-36.02662 0.3027,-0.47609 -0.0106,-0.007 c 2.82923,-4.40648 3.41429,-9.82735 1.62606,-15.06611 -3.74622,-10.88448 -16.51377,-18.00368 -28.51717,-15.9012 -7.40518,1.3059 -13.11792,5.94285 -15.1573,12.30251 -5.94329,-4.96853 -14.02825,-7.18955 -21.44535,-5.89128 z"
         style="opacity:1;fill:none;fill-opacity:1;fill-rule:evenodd;stroke:#000000;stroke-width:1.25;stroke-linecap:round;stroke-linejoin:round;stroke-miterlimit:4;stroke-dasharray:none;stroke-dashoffset:0;stroke-opacity:1" />
      <path
         id="path4177"
         d="m 244.74184,482.5005 -8.74654,25.69293"
         style="fill:none;fill-rule:evenodd;stroke:#000000;stroke-width:1.25;stroke-linecap:butt;stroke-linejoin:miter;stroke-miterlimit:4;stroke-dasharray:none;stroke-opacity:1" />
      <path
         style="fill:none;fill-rule:evenodd;stroke:#000000;stroke-width:1.25;stroke-linecap:butt;stroke-linejoin:miter;stroke-miterlimit:4;stroke-dasharray:none;stroke-opacity:1"
         d="m 189.52937,432.75461 -8.74654,25.69293"
         id="path4181" />
      <path
         style="fill:none;fill-rule:evenodd;stroke:#000000;stroke-width:1.25;stroke-linecap:butt;stroke-linejoin:miter;stroke-miterlimit:4;stroke-dasharray:none;stroke-opacity:1"
         d="m 269.61478,443.14111 -8.74654,25.69293"
         id="path4183" />
      <path
         style="fill:none;fill-rule:evenodd;stroke:#000000;stroke-width:1.25;stroke-linecap:butt;stroke-linejoin:miter;stroke-miterlimit:4;stroke-dasharray:none;stroke-opacity:1"
         d="m 235.99609,508.19336 24.87215,-39.35932"
         id="path4188" />
    </g>
  </g>
</svg>
